<?xml version="1.0" encoding="UTF-8" standalone="no"?>
<!DOCTYPE svg PUBLIC "-//W3C//DTD SVG 1.1//EN" "http://www.w3.org/Graphics/SVG/1.1/DTD/svg11.dtd">
<svg width="100%" height="100%" viewBox="0 0 576 512" version="1.1" xmlns="http://www.w3.org/2000/svg" xmlns:xlink="http://www.w3.org/1999/xlink" xml:space="preserve" xmlns:serif="http://www.serif.com/" style="fill-rule:evenodd;clip-rule:evenodd;stroke-linejoin:round;stroke-miterlimit:2;">
    <path d="M576,136C576,158.09 558.09,176 536,176C535.752,176 535.545,175.873 535.297,175.869L484.777,453.77C482,468.9 468.8,480 453.3,480L122.7,480C107.24,480 93.98,468.94 91.22,453.73L40.71,175.9C40.46,175.9 40.25,176 39.1,176C17.01,176 -0.9,158.09 -0.9,136C-0.9,113.91 17.91,96 39.1,96C60.29,96 79.1,113.91 79.1,136C79.1,144.998 75.579,152.89 70.563,159.57L160.193,231.27C176.103,244 199.693,238.814 208.803,220.59L266.403,105.39C255.1,98.34 247.1,86.34 247.1,72C247.1,49.91 265.9,32 288,32C310.1,32 327.1,49.91 327.1,72C327.1,86.34 319.137,98.34 307.8,105.4L365.4,220.6C374.511,238.82 398.11,244 414.01,231.28L503.64,159.58C499.5,152.9 496,144.1 496,136C496,113.9 513.9,96 536,96C558.1,96 576,113.9 576,136Z" style="fill:rgb(169,136,242);fill-rule:nonzero;"/>
</svg>
